<svg xmlns="http://www.w3.org/2000/svg" fill="none" viewBox="0 0 327 105" height="105" width="327">
<path fill="#2952BA" d="M131.608 44.2205L118.087 10.4705H124.796L133.9 34.3871L142.942 10.4705H149.587L136.15 44.2205H131.608Z"></path>
<path fill="#2952BA" d="M168.11 44.6996C165.87 44.6996 163.87 44.3975 162.11 43.8038C160.36 43.1944 158.839 42.3455 157.548 41.2621C156.256 40.1684 155.183 38.8871 154.339 37.4288C153.49 35.96 152.86 34.3663 152.443 32.658C152.027 30.9392 151.818 29.158 151.818 27.3246C151.818 25.4809 152.027 23.71 152.443 22.0121C152.86 20.3038 153.49 18.7205 154.339 17.2621C155.183 15.7934 156.256 14.5121 157.548 13.4288C158.839 12.335 160.36 11.4861 162.11 10.8871C163.87 10.2778 165.87 9.97046 168.11 9.97046C170.329 9.97046 172.324 10.2778 174.089 10.8871C175.85 11.4861 177.381 12.335 178.673 13.4288C179.964 14.5121 181.032 15.7934 181.881 17.2621C182.725 18.7205 183.36 20.3038 183.777 22.0121C184.193 23.71 184.402 25.4809 184.402 27.3246C184.402 29.158 184.193 30.9392 183.777 32.658C183.36 34.3663 182.725 35.96 181.881 37.4288C181.032 38.8871 179.964 40.1684 178.673 41.2621C177.381 42.3455 175.85 43.1944 174.089 43.8038C172.324 44.3975 170.329 44.6996 168.11 44.6996ZM168.11 39.3246C169.928 39.3246 171.464 39.0069 172.714 38.3663C173.975 37.7153 174.99 36.835 175.756 35.7205C176.532 34.6111 177.1 33.335 177.464 31.8871C177.824 30.4444 178.006 28.9236 178.006 27.3246C178.006 25.7413 177.824 24.2361 177.464 22.8038C177.1 21.3611 176.532 20.085 175.756 18.9705C174.99 17.8611 173.975 16.9861 172.714 16.3455C171.464 15.6944 169.928 15.3663 168.11 15.3663C166.287 15.3663 164.745 15.6944 163.485 16.3455C162.235 16.9861 161.219 17.8611 160.443 18.9705C159.678 20.085 159.115 21.3611 158.756 22.8038C158.391 24.2361 158.214 25.7413 158.214 27.3246C158.214 28.9236 158.391 30.4444 158.756 31.8871C159.115 33.335 159.678 34.6111 160.443 35.7205C161.219 36.835 162.235 37.7153 163.485 38.3663C164.745 39.0069 166.287 39.3246 168.11 39.3246Z"></path>
<path fill="#2952BA" d="M190.695 44.2205V10.4705H196.758V38.4913H211.174V44.2205H190.695Z"></path>
<path fill="#2952BA" d="M216.075 44.2205V10.4705H238.513V16.033H222.138V24.5538H237.388V30.1371H222.138V38.4913H238.513V44.2205H216.075Z"></path>
<path fill="#2952BA" d="M252.508 44.2205V15.8871H241.925V10.4705H269.133V15.8871H258.571V44.2205H252.508Z"></path>
<path fill="#2952BA" d="M122.15 94.7261V60.9761H131.942C135.775 60.9761 138.988 61.6427 141.587 62.9761C144.197 64.299 146.16 66.2365 147.483 68.7886C148.817 71.3302 149.483 74.4344 149.483 78.1011C149.483 81.6011 148.801 84.5959 147.442 87.0802C146.077 89.5542 144.093 91.45 141.483 92.7677C138.869 94.075 135.671 94.7261 131.879 94.7261H122.15ZM128.212 89.1636H131.296C133.155 89.1636 134.827 88.9709 136.317 88.5802C137.817 88.1948 139.093 87.5542 140.15 86.6636C141.202 85.7782 142.009 84.6115 142.567 83.1636C143.134 81.7209 143.421 79.9448 143.421 77.8302C143.421 75.1636 143.03 73.0073 142.254 71.3511C141.488 69.6844 140.254 68.4709 138.546 67.7052C136.848 66.9292 134.613 66.5386 131.837 66.5386H128.212V89.1636Z"></path>
<path fill="#2952BA" d="M167.915 95.2052C164.884 95.2052 162.421 94.6427 160.52 93.5177C158.629 92.3927 157.238 90.8094 156.353 88.7677C155.462 86.7261 155.02 84.325 155.02 81.5594V60.9761H161.061V80.8719C161.061 82.6948 161.254 84.2365 161.645 85.4969C162.03 86.7469 162.728 87.7052 163.728 88.3719C164.728 89.0282 166.124 89.3511 167.915 89.3511C169.733 89.3511 171.134 89.0282 172.124 88.3719C173.108 87.7052 173.796 86.7469 174.186 85.4969C174.572 84.2365 174.77 82.6948 174.77 80.8719V60.9761H180.832V81.3302C180.832 84.1636 180.379 86.6219 179.478 88.7052C178.587 90.7782 177.191 92.3823 175.29 93.5177C173.4 94.6427 170.941 95.2052 167.915 95.2052Z"></path>
<path fill="#2952BA" d="M188.738 94.7261V60.9761H196.904L205.863 84.9761L214.821 60.9761H222.988V94.7261H217.154V69.4761L208.8 91.7886H202.925L194.55 69.4761V94.7261H188.738Z"></path>
<path fill="#2952BA" d="M245.561 95.2052C243.322 95.2052 241.322 94.9032 239.561 94.3094C237.811 93.7 236.29 92.8511 234.999 91.7677C233.707 90.674 232.634 89.3927 231.79 87.9344C230.941 86.4657 230.311 84.8719 229.895 83.1636C229.478 81.4448 229.27 79.6636 229.27 77.8302C229.27 75.9865 229.478 74.2157 229.895 72.5177C230.311 70.8094 230.941 69.2261 231.79 67.7677C232.634 66.299 233.707 65.0177 234.999 63.9344C236.29 62.8407 237.811 61.9917 239.561 61.3927C241.322 60.7834 243.322 60.4761 245.561 60.4761C247.78 60.4761 249.775 60.7834 251.54 61.3927C253.301 61.9917 254.832 62.8407 256.124 63.9344C257.415 65.0177 258.483 66.299 259.332 67.7677C260.176 69.2261 260.811 70.8094 261.228 72.5177C261.645 74.2157 261.853 75.9865 261.853 77.8302C261.853 79.6636 261.645 81.4448 261.228 83.1636C260.811 84.8719 260.176 86.4657 259.332 87.9344C258.483 89.3927 257.415 90.674 256.124 91.7677C254.832 92.8511 253.301 93.7 251.54 94.3094C249.775 94.9032 247.78 95.2052 245.561 95.2052ZM245.561 89.8302C247.379 89.8302 248.915 89.5125 250.165 88.8719C251.426 88.2209 252.441 87.3407 253.207 86.2261C253.983 85.1167 254.551 83.8407 254.915 82.3927C255.275 80.95 255.457 79.4292 255.457 77.8302C255.457 76.2469 255.275 74.7417 254.915 73.3094C254.551 71.8667 253.983 70.5907 253.207 69.4761C252.441 68.3667 251.426 67.4917 250.165 66.8511C248.915 66.2 247.379 65.8719 245.561 65.8719C243.738 65.8719 242.197 66.2 240.936 66.8511C239.686 67.4917 238.671 68.3667 237.895 69.4761C237.129 70.5907 236.566 71.8667 236.207 73.3094C235.842 74.7417 235.665 76.2469 235.665 77.8302C235.665 79.4292 235.842 80.95 236.207 82.3927C236.566 83.8407 237.129 85.1167 237.895 86.2261C238.671 87.3407 239.686 88.2209 240.936 88.8719C242.197 89.5125 243.738 89.8302 245.561 89.8302Z"></path>
<path fill="#2952BA" d="M268.146 94.7261V60.9761H274.167L288.355 84.6011V60.9761H294.167V94.7261H288.105L273.959 71.0594V94.7261H268.146Z"></path>
<path fill="#2952BA" d="M309.57 94.7261V66.3927H298.986V60.9761H326.195V66.3927H315.632V94.7261H309.57Z"></path>
<path stroke-width="14" stroke="#2952BA" d="M0.0107422 53.375L103.172 53.5417"></path>
<path stroke-width="11" stroke="#2952BA" d="M0.00536423 35.151L103.167 35.3125"></path>
<path stroke-width="10" stroke="#2952BA" d="M0 19.2866L103.167 19.4533"></path>
<path stroke-width="9" stroke="#2952BA" d="M0 5L103.161 5.16667"></path>
<path stroke-width="16" stroke="#2952BA" d="M0.015625 73.7554L103.177 73.922"></path>
<path stroke-width="17" stroke="#2952BA" d="M0.015625 95.7136L103.177 95.8803"></path>
</svg>
